<?xml version="1.0" standalone="no"?>
<!DOCTYPE svg PUBLIC "-//W3C//DTD SVG 20010904//EN"
 "http://www.w3.org/TR/2001/REC-SVG-20010904/DTD/svg10.dtd">
<svg version="1.0" xmlns="http://www.w3.org/2000/svg"
 width="474.000000pt" height="428.000000pt" viewBox="0 0 474.000000 428.000000"
 preserveAspectRatio="xMidYMid meet">
<metadata>
Created by potrace 1.16, written by Peter Selinger 2001-2019
</metadata>
<g transform="translate(0.000000,428.000000) scale(0.100000,-0.100000)"
fill="#000000" stroke="none">
<path d="M2080 4270 c0 -5 -12 -10 -27 -10 -36 0 -180 -35 -258 -61 -100 -35
-255 -116 -350 -184 -285 -203 -485 -504 -567 -855 -29 -124 -36 -382 -14
-520 40 -250 141 -479 299 -676 153 -188 369 -346 595 -430 76 -29 106 -30
132 -4 18 18 20 33 20 166 l0 146 -27 -6 c-167 -31 -319 0 -395 81 -15 15 -37
51 -49 78 -37 85 -106 183 -146 208 -81 51 -92 89 -31 101 85 16 174 -43 265
-174 57 -81 116 -114 214 -119 54 -2 93 2 128 14 46 15 50 19 56 55 4 21 22
64 40 94 l33 55 -36 6 c-364 58 -539 220 -588 540 -32 207 0 367 97 495 33 44
34 46 22 90 -30 116 -2 320 47 335 46 15 249 -60 342 -126 27 -20 31 -20 96
-5 178 40 406 40 582 0 l67 -15 72 45 c90 55 202 97 266 99 l49 2 19 -50 c25
-65 33 -212 15 -280 -13 -50 -13 -50 21 -95 81 -106 116 -238 107 -395 -20
-353 -180 -550 -503 -620 -43 -9 -91 -20 -106 -23 l-28 -7 26 -35 c53 -72 59
-113 60 -386 0 -233 1 -253 19 -273 27 -30 62 -26 166 15 294 118 575 377 721
665 222 441 203 966 -51 1383 -194 320 -502 548 -866 641 -54 13 -114 25 -132
25 -20 0 -31 4 -27 10 4 7 -60 10 -184 10 -121 0 -191 -4 -191 -10z"/>
<path d="M392 1265 c-196 -44 -325 -182 -364 -389 -7 -36 -16 -66 -20 -66 -11
0 -10 -354 0 -365 5 -6 14 -36 21 -68 37 -173 179 -323 334 -352 20 -4 37 -11
37 -16 0 -5 74 -9 165 -9 91 0 165 4 165 8 0 4 21 13 48 20 26 7 71 24 100 38
l52 25 0 320 0 319 -215 0 -215 0 0 -115 0 -115 85 0 85 0 0 -124 0 -124 -72
-7 c-207 -19 -305 74 -327 308 -10 109 2 237 29 311 25 65 97 136 158 154 56
17 236 15 307 -3 32 -9 62 -12 66 -8 6 8 49 180 49 200 0 13 -61 40 -120 53
-79 18 -298 21 -368 5z"/>
<path d="M2102 628 l3 -603 120 0 120 0 3 257 2 258 180 0 180 0 2 -258 3
-257 122 -3 c120 -3 123 -2 128 20 3 13 4 284 3 603 l-3 580 -127 3 -128 3 0
-226 0 -225 -177 2 -178 3 -1 30 c-1 17 -2 117 -3 223 l-1 192 -125 0 -125 0
2 -602z"/>
<path d="M3958 1220 c-1 -5 -2 -278 0 -605 l2 -595 90 0 91 0 6 30 c3 17 6 30
7 30 0 0 28 -14 60 -30 32 -17 65 -30 72 -30 8 0 14 -4 14 -10 0 -6 47 -10
120 -10 66 0 120 4 120 8 0 5 18 16 40 26 22 9 53 34 70 54 31 38 70 128 70
162 0 11 5 20 10 20 6 0 10 67 10 180 0 99 -4 180 -8 180 -5 0 -16 24 -25 53
-20 64 -74 130 -131 159 -63 33 -185 37 -273 9 -37 -12 -74 -25 -80 -27 -10
-5 -13 39 -13 200 l0 206 -124 0 c-74 0 -126 -4 -128 -10z m469 -584 c40 -34
55 -91 54 -212 -2 -173 -36 -222 -151 -211 -31 3 -71 12 -88 21 l-32 17 0 188
0 189 43 15 c68 25 140 22 174 -7z"/>
<path d="M1133 1191 c-50 -23 -74 -57 -80 -115 -18 -152 193 -219 263 -84 64
123 -58 256 -183 199z"/>
<path d="M1540 960 l0 -120 -27 -6 c-84 -19 -103 -26 -104 -39 0 -8 0 -42 0
-75 0 -33 0 -67 0 -75 1 -12 15 -15 65 -15 l64 0 4 -222 c3 -210 5 -226 27
-271 27 -54 65 -90 116 -108 19 -7 35 -17 35 -21 0 -4 50 -8 110 -8 67 0 110
4 110 10 0 6 9 10 20 10 25 0 32 27 28 115 l-3 70 -40 3 c-73 4 -106 13 -126
33 -17 17 -19 34 -19 204 l0 184 88 3 87 3 0 105 0 105 -87 3 -88 3 0 114 0
115 -130 0 -130 0 0 -120z"/>
<path d="M1067 844 c-4 -4 -7 -189 -7 -410 l0 -404 23 -5 c12 -3 69 -5 127 -3
l105 3 0 410 0 410 -121 3 c-66 1 -123 -1 -127 -4z"/>
<path d="M3084 837 c-3 -8 -4 -160 -2 -338 3 -311 4 -326 25 -365 26 -48 83
-101 118 -110 14 -3 25 -10 25 -15 0 -5 56 -9 125 -9 77 0 125 4 125 10 0 6 8
10 18 10 9 0 43 13 75 29 62 30 58 31 73 -17 3 -9 25 -12 86 -10 l83 3 0 410
0 410 -125 0 -125 0 -5 -300 -5 -299 -45 -18 c-76 -29 -157 -19 -177 21 -4 9
-10 147 -13 306 l-5 290 -123 3 c-97 2 -123 0 -128 -11z"/>
</g>
</svg>
