<?xml version="1.0" standalone="yes"?>
<svg xmlns="http://www.w3.org/2000/svg" width="300" height="300">
<path style="fill:#010101; stroke:none;" d="M0 0L0 131L1 131C2.06005 79.6412 46.0838 30.7877 91 11.5787C103.297 6.31964 117.499 1.27872 131 1C120.496 -3.40756 102.42 0 91 0L0 0z"/>
<path style="fill:#f70685; stroke:none;" d="M131 0L132 1L131 0z"/>
<path style="fill:#f1057f; stroke:none;" d="M128 1L128 2L133 2L133 3C129.292 3 126.277 3.89337 127 1L117 3L117 4L120 4L120 5L116 3L110 5L112 6L112 7L105 8L105 9L96 11L96 10L98 10L98 9C95.3906 9.45905 94.3717 9.65472 96 12L89 12L88 12L86 13L86 14L89 14L89 15L56 34L59 30C-20.2223 79.5536 -20.2396 220.436 59 270L56 266L89 285L89 286L86 286L86 287L89 288L96 288L94 290L98 291L98 290L96 290L96 289L105 291L105 292L103 293L112 293L112 294L110 295L116 297L120 295L120 296L117 296L117 297L121 298L126 296L126 297L122 297L122 298L127 299C127 295.898 130.367 297 133 297L133 298L128 298L128 299L134 300L145 298L145 299L135 299L135 300L165 300L165 299L155 299L155 298L166 300L172 299L172 298L167 298L167 297C170.708 297 173.723 296.107 173 299L178 298L178 297L174 297L174 296L179 298L183 297L183 296L180 296L180 295L184 297L185 297L187 296L187 295L184 295L184 294L190 295L190 294L188 294L188 293L195 292L195 291L204 289L204 290L202 290L202 291C204.609 290.541 205.628 290.345 204 288L211 288L212 288L214 287L214 286L211 286L211 285L230 276L228 279L233 276L233 275L230 276L230 275L244 266L241 270C274.828 248.84 296.082 204.731 299.83 166C301.857 145.056 300 123.047 300 102L300 0L135 0L135 1L145 1L145 2L134 0L128 1z"/>
<path style="fill:#f70685; stroke:none;" d="M134 0L145 2L145 1L134 0M124 1L125 2L124 1M126 2L126 3L133 3L126 2M119 2L120 3L119 2M116 3L120 5L120 4L116 3M121 3L121 4L126 4L121 3M111 4L112 5L111 4M107 5L107 6L112 7L107 5M112 5L112 6L116 6L112 5M101 9L98 8L96 10L96 11L105 9L101 9M105 7L105 8L108 8L105 7z"/>
<path style="fill:#f1057f; stroke:none;" d="M100 8L101 9L100 8z"/>
<path style="fill:#f70685; stroke:none;" d="M89 14L96 12C93.0204 10.4863 90.9237 11.3279 89 14z"/>
<path style="fill:#f1057f; stroke:none;" d="M91 11L92 12L91 11M84 14L85 15L84 14z"/>
<path style="fill:#f70685; stroke:none;" d="M56 34L89 15C80.241 11.9696 61.0333 27.4383 56 34z"/>
<path style="fill:#f1057f; stroke:none;" d="M82 15L83 16L82 15M80 16L81 17L80 16M78 17L79 18L78 17M76.6667 18.3333L77.3333 18.6667L76.6667 18.3333M75 19L76 20L75 19M73 20L74 21L73 20M71 21L72 22L71 21M70 22L71 23L70 22M68 23L69 24L68 23M67 24L68 25L67 24M65 25L66 26L65 25M64 26L65 27L64 26M62 27L63 28L62 27M61 28L62 29L61 28M60 29L61 30L60 29z"/>
<path style="fill:#f70685; stroke:none;" d="M4 120L5 120C8.04711 97.3715 20.244 74.52 34.4599 57C41.0523 48.8754 49.9792 42.3707 56 34C48.6463 37.4292 42.4909 44.9697 37.1698 51C21.2744 69.0138 5.99731 95.5464 4 120M45 41L46 42L45 41z"/>
<path style="fill:#f663b0; stroke:none;" d="M148 51L148 52L248 52L248 152L249 152L249 51L148 51z"/>
<path style="fill:#fffdfe; stroke:none;" d="M148 52L148 126C148 131.098 145.348 147.602 149.603 150.972C154.431 154.795 169.966 152 176 152L248 152L248 52L148 52z"/>
<path style="fill:#f70685; stroke:none;" d="M33 54L34 55L33 54M29 59L30 60L29 59M9 95L10 96L9 95M3 121L2 133L3 133L3 121M1.33333 124.667L1.66667 125.333L1.33333 124.667M0 131L1 132L0 131M1 134L1 145L2 145L1 134z"/>
<path style="fill:#f663b0; stroke:none;" d="M148 151L149 152L148 151z"/>
<path style="fill:#f70685; stroke:none;" d="M1 155L1 166L2 166L1 155M298 155L298 166L299 166L298 155z"/>
<path style="fill:#f663b0; stroke:none;" d="M32 158L32 163L33 163L32 158z"/>
<path style="fill:#fffdfe; stroke:none;" d="M33 158C33.0375 214.607 85.3819 266.963 142 267L142 158L33 158z"/>
<path style="fill:#f663b0; stroke:none;" d="M148 158L149 159L148 158z"/>
<path style="fill:#fffdfe; stroke:none;" d="M148 267C203.353 266.847 247.965 210.883 248 158L176 158C169.966 158 154.431 155.205 149.603 159.028C145.154 162.552 148 180.62 148 186L148 267z"/>
<path style="fill:#f663b0; stroke:none;" d="M248 158L248 163L249 163L248 158z"/>
<path style="fill:#f70685; stroke:none;" d="M32.3333 163.667L32.6667 164.333L32.3333 163.667M248.333 163.667L248.667 164.333L248.333 163.667M2 167L3 179L4 179L2 167z"/>
<path style="fill:#f663b0; stroke:none;" d="M33 167L33 171L34 171L33 167M247 167L247 171L248 171L247 167z"/>
<path style="fill:#f70685; stroke:none;" d="M297 167L296 179L297 179L297 167M0 168L1 169L0 168M299 168L300 169L299 168z"/>
<path style="fill:#010101; stroke:none;" d="M0 169L0 300L131 300L131 299C81.9336 297.987 34.6151 257.043 14.2585 215C7.09751 200.21 6.27355 183.543 0 169M299 169C297.94 220.339 253.902 269.219 209 288.421C196.703 293.68 182.501 298.721 169 299L169 300L300 300L300 209C300 197.58 303.408 179.504 299 169z"/>
<path style="fill:#f70685; stroke:none;" d="M33 171L34 172L33 171M247 171L248 172L247 171z"/>
<path style="fill:#f663b0; stroke:none;" d="M34 173L34 176L35 176L34 173z"/>
<path style="fill:#f70685; stroke:none;" d="M1.33333 174.667L1.66667 175.333L1.33333 174.667z"/>
<path style="fill:#f663b0; stroke:none;" d="M246 174L246 177L247 177L246 174z"/>
<path style="fill:#f70685; stroke:none;" d="M298.333 174.667L298.667 175.333L298.333 174.667M34 176L35 177L34 176M246 177L247 178L246 177z"/>
<path style="fill:#f663b0; stroke:none;" d="M35.3333 178.667L35.6667 179.333L35.3333 178.667M245.333 179.667L245.667 180.333L245.333 179.667z"/>
<path style="fill:#f70685; stroke:none;" d="M4 180C5.99731 204.454 21.2744 230.986 37.1698 249C42.4909 255.03 48.6463 262.571 56 266L22.0116 225L4 180M35 180L36 181L35 180M295 180C291.953 202.629 279.756 225.48 265.54 243C258.948 251.125 250.021 257.629 244 266C265.316 256.06 281.636 225.034 289.575 204C291.975 197.64 297.387 186.672 295 180M245 181L246 182L245 181z"/>
<path style="fill:#f663b0; stroke:none;" d="M36.3333 182.667L36.6667 183.333L36.3333 182.667M244.333 183.667L244.667 184.333L244.333 183.667z"/>
<path style="fill:#f70685; stroke:none;" d="M36 184L37 185L36 184z"/>
<path style="fill:#f663b0; stroke:none;" d="M37.3333 185.667L37.6667 186.333L37.3333 185.667z"/>
<path style="fill:#f70685; stroke:none;" d="M244 185L245 186L244 185M37 187L38 188L37 187z"/>
<path style="fill:#f663b0; stroke:none;" d="M243 187L244 188L243 187z"/>
<path style="fill:#f70685; stroke:none;" d="M243 188L244 189L243 188z"/>
<path style="fill:#f663b0; stroke:none;" d="M38 189L39 190L38 189z"/>
<path style="fill:#f70685; stroke:none;" d="M38 190L39 191L38 190z"/>
<path style="fill:#f663b0; stroke:none;" d="M242 190L243 191L242 190M39.3333 191.667L39.6667 192.333L39.3333 191.667z"/>
<path style="fill:#f70685; stroke:none;" d="M242 191L243 192L242 191z"/>
<path style="fill:#f663b0; stroke:none;" d="M241 193L242 194L241 193M40 194L41 195L40 194z"/>
<path style="fill:#f70685; stroke:none;" d="M241 194L242 195L241 194M40 195L41 196L40 195z"/>
<path style="fill:#f663b0; stroke:none;" d="M41.3333 196.667L41.6667 197.333L41.3333 196.667M240 196L241 197L240 196z"/>
<path style="fill:#f70685; stroke:none;" d="M240 197L241 198L240 197z"/>
<path style="fill:#f663b0; stroke:none;" d="M239 198L240 199L239 198M42 199L43 200L42 199z"/>
<path style="fill:#f70685; stroke:none;" d="M239 199L240 200L239 199z"/>
<path style="fill:#f663b0; stroke:none;" d="M43 201L44 202L43 201M238 201L239 202L238 201z"/>
<path style="fill:#f70685; stroke:none;" d="M43 202L44 203L43 202z"/>
<path style="fill:#f663b0; stroke:none;" d="M44 203L45 204L44 203M237 203L238 204L237 203z"/>
<path style="fill:#f70685; stroke:none;" d="M9 204L10 205L9 204M44 204L45 205L44 204M290 204L291 205L290 204z"/>
<path style="fill:#f663b0; stroke:none;" d="M45 205L46 206L45 205M236 205L237 206L236 205z"/>
<path style="fill:#f70685; stroke:none;" d="M236 206L237 207L236 206z"/>
<path style="fill:#f663b0; stroke:none;" d="M46 207L47 208L46 207M235 207L236 208L235 207z"/>
<path style="fill:#f70685; stroke:none;" d="M235 208L236 209L235 208z"/>
<path style="fill:#f663b0; stroke:none;" d="M47 209L48 210L47 209M234 209L235 210L234 209M48 210L49 211L48 210z"/>
<path style="fill:#f70685; stroke:none;" d="M48 211L49 212L48 211z"/>
<path style="fill:#f663b0; stroke:none;" d="M233 211L234 212L233 211M49 212L50 213L49 212M232 213L233 214L232 213z"/>
<path style="fill:#f70685; stroke:none;" d="M50 214L51 215L50 214z"/>
<path style="fill:#f663b0; stroke:none;" d="M231 214L232 215L231 214M51 215L52 216L51 215z"/>
<path style="fill:#f70685; stroke:none;" d="M231 215L232 216L231 215z"/>
<path style="fill:#f663b0; stroke:none;" d="M230 216L231 217L230 216z"/>
<path style="fill:#f70685; stroke:none;" d="M52 217L53 218L52 217z"/>
<path style="fill:#f663b0; stroke:none;" d="M53 218L54 219L53 218z"/>
<path style="fill:#f70685; stroke:none;" d="M229 218L230 219L229 218z"/>
<path style="fill:#f663b0; stroke:none;" d="M228 219L229 220L228 219z"/>
<path style="fill:#f70685; stroke:none;" d="M54 220L55 221L54 220z"/>
<path style="fill:#f663b0; stroke:none;" d="M55 221L56 222L55 221z"/>
<path style="fill:#f70685; stroke:none;" d="M227 221L228 222L227 221M282 221L283 222L282 221z"/>
<path style="fill:#f663b0; stroke:none;" d="M56 222L57 223L56 222M226 222L227 223L226 222M57 223L58 224L57 223M225 223L226 224L225 223z"/>
<path style="fill:#f70685; stroke:none;" d="M57 224L58 225L57 224M225 224L226 225L225 224M58 225L59 226L58 225z"/>
<path style="fill:#f663b0; stroke:none;" d="M224 225L225 226L224 225M59 226L60 227L59 226M223 226L224 227L223 226M60 227L61 228L60 227M222 227L223 228L222 227M61 228L62 229L61 228M62 229L63 230L62 229z"/>
<path style="fill:#f70685; stroke:none;" d="M221 229L222 230L221 229z"/>
<path style="fill:#f663b0; stroke:none;" d="M63 230L64 231L63 230M220 230L221 231L220 230M219 231L220 232L219 231M218 232L219 233L218 232M217 233L218 234L217 233z"/>
<path style="fill:#f70685; stroke:none;" d="M66 234L67 235L66 234z"/>
<path style="fill:#f663b0; stroke:none;" d="M216 234L217 235L216 234M215 235L216 236L215 235M69 236L70 237L69 236M214 236L215 237L214 236M70 237L71 238L70 237M213 237L214 238L213 237M71 238L72 239L71 238M212 238L213 239L212 238M72 239L73 240L72 239M211 239L212 240L211 239z"/>
<path style="fill:#f70685; stroke:none;" d="M29 240L30 241L29 240z"/>
<path style="fill:#f663b0; stroke:none;" d="M73 240L74 241L73 240M210 240L211 241L210 240z"/>
<path style="fill:#f70685; stroke:none;" d="M270 240L271 241L270 240M74 241L75 242L74 241z"/>
<path style="fill:#f663b0; stroke:none;" d="M209 241L210 242L209 241z"/>
<path style="fill:#f70685; stroke:none;" d="M75 242L76 243L75 242z"/>
<path style="fill:#f663b0; stroke:none;" d="M76 242L77 243L76 242M208 242L209 243L208 242M77 243L78 244L77 243M207 243L208 244L207 243M78 244L79 245L78 244z"/>
<path style="fill:#f70685; stroke:none;" d="M206 244L207 245L206 244M33 245L34 246L33 245M79 245L80 246L79 245z"/>
<path style="fill:#f663b0; stroke:none;" d="M204 245L205 246L204 245z"/>
<path style="fill:#f70685; stroke:none;" d="M205 245L206 246L205 245M266 245L267 246L266 245z"/>
<path style="fill:#f663b0; stroke:none;" d="M81 246L82 247L81 246M203 246L204 247L203 246z"/>
<path style="fill:#f70685; stroke:none;" d="M82 247L83 248L82 247z"/>
<path style="fill:#f663b0; stroke:none;" d="M202 247L203 248L202 247M84 248L85 249L84 248M200 248L201 249L200 248z"/>
<path style="fill:#f70685; stroke:none;" d="M201 248L202 249L201 248M85 249L86 250L85 249z"/>
<path style="fill:#f663b0; stroke:none;" d="M199 249L200 250L199 249M87 250L88 251L87 250z"/>
<path style="fill:#f70685; stroke:none;" d="M198 250L199 251L198 250M88 251L89 252L88 251z"/>
<path style="fill:#f663b0; stroke:none;" d="M89 251L90 252L89 251M196 251L197 252L196 251M90 252L91 253L90 252M194 252L195 253L194 252z"/>
<path style="fill:#f70685; stroke:none;" d="M195 252L196 253L195 252z"/>
<path style="fill:#f663b0; stroke:none;" d="M92 253L93 254L92 253M193 253L194 254L193 253M94 254L95 255L94 254M191 254L192 255L191 254z"/>
<path style="fill:#f70685; stroke:none;" d="M95 255L96 256L95 255z"/>
<path style="fill:#f663b0; stroke:none;" d="M96 255L97 256L96 255M189 255L190 256L189 255z"/>
<path style="fill:#f70685; stroke:none;" d="M190 255L191 256L190 255M97 256L98 257L97 256z"/>
<path style="fill:#f663b0; stroke:none;" d="M98 256L99 257L98 256M187 256L188 257L187 256z"/>
<path style="fill:#f70685; stroke:none;" d="M188 256L189 257L188 256z"/>
<path style="fill:#f663b0; stroke:none;" d="M100 257L101 258L100 257M185.667 257.333L186.333 257.667L185.667 257.333z"/>
<path style="fill:#f70685; stroke:none;" d="M45 258L46 259L45 258z"/>
<path style="fill:#f663b0; stroke:none;" d="M102.667 258.333L103.333 258.667L102.667 258.333M183 258L184 259L183 258z"/>
<path style="fill:#f70685; stroke:none;" d="M184 258L185 259L184 258M254 258L255 259L254 258M104 259L105 260L104 259z"/>
<path style="fill:#f663b0; stroke:none;" d="M105 259L106 260L105 259M181 259L182 260L181 259z"/>
<path style="fill:#f70685; stroke:none;" d="M182 259L183 260L182 259z"/>
<path style="fill:#f663b0; stroke:none;" d="M107.667 260.333L108.333 260.667L107.667 260.333M179 260L180 261L179 260z"/>
<path style="fill:#f70685; stroke:none;" d="M180 260L181 261L180 260M109 261L110 262L109 261z"/>
<path style="fill:#f663b0; stroke:none;" d="M110.667 261.333L111.333 261.667L110.667 261.333M176 261L177 262L176 261z"/>
<path style="fill:#f70685; stroke:none;" d="M177 261L178 262L177 261M112 262L113 263L112 262z"/>
<path style="fill:#f663b0; stroke:none;" d="M113.667 262.333L114.333 262.667L113.667 262.333M173.667 262.333L174.333 262.667L173.667 262.333z"/>
<path style="fill:#f70685; stroke:none;" d="M115 263L116 264L115 263z"/>
<path style="fill:#f663b0; stroke:none;" d="M116.667 263.333L117.333 263.667L116.667 263.333M170.667 263.333L171.333 263.667L170.667 263.333z"/>
<path style="fill:#f70685; stroke:none;" d="M119 264L120 265L119 264z"/>
<path style="fill:#f663b0; stroke:none;" d="M120.667 264.333L121.333 264.667L120.667 264.333M166.667 264.333L167.333 264.667L166.667 264.333z"/>
<path style="fill:#f70685; stroke:none;" d="M168 264L169 265L168 264M123 265L124 266L123 265z"/>
<path style="fill:#f663b0; stroke:none;" d="M124 265L124 266L127 266L124 265M162.667 265.333L163.333 265.667L162.667 265.333z"/>
<path style="fill:#f70685; stroke:none;" d="M164 265L165 266L164 265M56 266C62.571 274.566 78.0931 284.883 89 286L89 285L56 266M128 266L129 267L128 266z"/>
<path style="fill:#f663b0; stroke:none;" d="M129 266L129 267L133 267L129 266M156 266L156 267L160 267L156 266z"/>
<path style="fill:#f70685; stroke:none;" d="M160 266L161 267L160 266M230 275L230 276L244 266L230 275M135.667 267.333L136.333 267.667L135.667 267.333z"/>
<path style="fill:#f663b0; stroke:none;" d="M137 267L137 268L142 268L137 267M148 267L148 268L153 268L148 267z"/>
<path style="fill:#f70685; stroke:none;" d="M153.667 267.333L154.333 267.667L153.667 267.333z"/>
<path style="fill:#f1057f; stroke:none;" d="M60 270L61 271L60 270M239 270L240 271L239 270M61 271L62 272L61 271M238 271L239 272L238 271M62 272L63 273L62 272M237 272L238 273L237 272M64 273L65 274L64 273M235 273L236 274L235 273M65 274L66 275L65 274M234 274L235 275L234 274M67 275L68 276L67 275M68 276L69 277L68 276z"/>
<path style="fill:#f70685; stroke:none;" d="M211 285L211 286C217.816 285.302 225.556 281.188 230 276L211 285z"/>
<path style="fill:#f1057f; stroke:none;" d="M70 277L71 278L70 277M71 278L72 279L71 278M73 279L74 280L73 279M226 279L227 280L226 279M75 280L76 281L75 280M224 280L225 281L224 280M76.6667 281.333L77.3333 281.667L76.6667 281.333M222.667 281.333L223.333 281.667L222.667 281.333M78 282L79 283L78 282M221 282L222 283L221 282M80 283L81 284L80 283M219 283L220 284L219 283M82 284L83 285L82 284M217 284L218 285L217 284M84 285L85 286L84 285M215 285L216 286L215 285z"/>
<path style="fill:#f70685; stroke:none;" d="M89 286L96 289L96 288L89 286M204 288L204 289L211 286L204 288z"/>
<path style="fill:#f1057f; stroke:none;" d="M91 288L92 289L91 288M208 288L209 289L208 288z"/>
<path style="fill:#f70685; stroke:none;" d="M96 289L96 290L98 292L101 291L105 292L105 291L96 289M195 291L195 292L199 291L202 292L204 290L195 291z"/>
<path style="fill:#f1057f; stroke:none;" d="M100 291L101 292L100 291M199 291L200 292L199 291z"/>
<path style="fill:#f70685; stroke:none;" d="M105 292L105 293L108 293L105 292M192 292L192 293L195 293L192 292M107 294L107 295L112 294L107 294M188 293L188 294L193 295L188 293M112 294L112 295L116 295L112 294M184 294L184 295L189 296L184 294M111 295L112 296L111 295M116 297L120 296L116 297M180 295L180 296L184 297L180 295M121 298L126 297L121 298M174 296L174 297L179 298L174 296M119 297L120 298L119 297M126 297L126 298L133 298L126 297M167 297L167 298L174 298L167 297M180 297L181 298L180 297M124 298L125 299L124 298M134 300L145 299C141.612 297.578 136.554 297.077 134 300M155 298L155 299L166 300L155 298M175 298L176 299L175 298M131 299L132 300L131 299M168 299L169 300L168 299z"/>
</svg>
