<?xml version="1.0" standalone="no"?>
<!DOCTYPE svg PUBLIC "-//W3C//DTD SVG 20010904//EN"
 "http://www.w3.org/TR/2001/REC-SVG-20010904/DTD/svg10.dtd">
<svg version="1.0" xmlns="http://www.w3.org/2000/svg"
 width="474.000000pt" height="355.000000pt" viewBox="0 0 474.000000 355.000000"
 preserveAspectRatio="xMidYMid meet">
<metadata>
Created by potrace 1.16, written by Peter Selinger 2001-2019
</metadata>
<g transform="translate(0.000000,355.000000) scale(0.100000,-0.100000)"
fill="#000000" stroke="none">
<path d="M1776 3044 c-4 -97 -5 -179 -2 -181 3 -3 -15 -21 -39 -40 -25 -19
-45 -37 -45 -41 0 -4 37 -19 83 -34 45 -15 68 -25 51 -22 -22 3 -35 -1 -48
-15 -15 -16 -16 -21 -5 -25 8 -2 29 -9 48 -15 28 -9 39 -8 58 4 13 9 21 20 18
25 -8 13 6 12 25 0 12 -8 12 -10 1 -10 -8 0 -11 -3 -8 -6 4 -4 12 -2 19 3 9 7
21 7 38 0 14 -5 32 -11 40 -12 8 -1 26 -5 39 -9 15 -5 21 -4 17 2 -3 5 2 16
11 23 12 10 14 10 9 2 -15 -26 10 -11 61 35 l52 47 10 165 c6 91 7 168 3 172
-8 7 -397 108 -417 108 -9 0 -14 -48 -19 -176z"/>
<path d="M3021 3022 c-11 -87 -21 -173 -21 -190 0 -21 -10 -43 -31 -67 l-31
-35 27 -10 c15 -6 46 -15 70 -21 44 -11 44 -11 25 -32 -25 -26 -20 -33 40 -47
54 -13 87 -1 76 27 -3 7 -1 13 4 13 6 0 10 -5 10 -11 0 -5 6 -7 13 -4 6 4 5 0
-4 -7 -14 -12 -9 -13 40 -12 60 1 111 -12 111 -28 0 -6 -7 -7 -16 -4 -8 3 -12
2 -9 -4 10 -16 23 -12 36 11 8 15 8 19 0 15 -6 -4 -11 -2 -11 3 0 6 9 11 19
11 11 0 37 20 58 44 38 43 39 46 66 216 16 94 27 173 25 175 -2 2 -465 115
-473 115 -1 0 -12 -71 -24 -158z"/>
<path d="M751 2823 c0 -101 16 -317 24 -336 6 -15 4 -18 -11 -16 -18 4 -114
-57 -114 -71 0 -4 78 -35 174 -69 116 -42 183 -61 202 -57 16 2 33 5 37 5 5 1
5 6 2 11 -4 6 -1 9 7 8 7 -2 12 3 10 10 -1 8 2 11 7 7 6 -3 33 11 62 32 l52
37 -7 180 c-4 100 -9 182 -11 184 -2 3 -425 132 -432 132 -2 0 -3 -26 -2 -57z"/>
<path d="M1950 2670 c0 -5 7 -10 16 -10 8 0 12 5 9 10 -3 6 -10 10 -16 10 -5
0 -9 -4 -9 -10z"/>
<path d="M2069 2647 c-9 -7 -22 -23 -29 -37 -10 -21 -10 -23 1 -12 18 17 46
15 53 -4 13 -33 16 -6 4 29 -11 30 -15 34 -29 24z"/>
<path d="M2345 2508 c-126 -120 -150 -147 -151 -173 0 -16 -2 -102 -3 -190 -2
-107 -6 -152 -12 -135 -6 19 -8 12 -5 -27 2 -32 -1 -54 -8 -56 -7 -2 -4 -17 9
-43 15 -30 22 -76 31 -194 6 -85 8 -158 5 -162 -6 -7 -155 36 -176 50 -13 10
-71 28 -115 37 -37 8 -69 34 -90 75 -9 16 -10 25 -2 28 6 2 8 10 5 18 -6 16
-44 19 -59 4 -5 -5 -88 -25 -184 -44 -96 -20 -209 -43 -250 -51 -164 -34 -229
-46 -310 -61 -47 -8 -97 -19 -112 -24 -25 -8 -28 -7 -32 23 -3 18 -10 115 -16
216 -5 102 -11 185 -13 186 -9 7 -485 175 -494 175 -8 0 -11 -15 -7 -47 3 -27
11 -117 19 -201 10 -118 18 -160 34 -187 22 -37 18 -41 -24 -25 -23 9 -33 4
-90 -42 -57 -45 -72 -68 -45 -68 5 0 95 -36 201 -80 105 -44 197 -80 203 -80
7 0 25 14 41 30 18 19 35 28 46 25 11 -4 34 9 64 35 51 44 72 52 55 20 -9 -17
-8 -18 17 -10 32 11 635 130 798 158 61 11 115 17 120 15 6 -2 19 -19 29 -38
27 -50 111 -126 183 -166 35 -19 63 -38 63 -44 0 -14 -71 -115 -81 -115 -5 0
-9 -6 -9 -13 0 -7 -9 -18 -20 -25 -11 -7 -20 -18 -20 -25 0 -6 38 28 84 78
l83 89 74 -17 c125 -29 219 -39 339 -35 l114 3 39 -65 c22 -36 36 -56 32 -45
-13 36 -35 110 -35 117 0 3 32 16 72 28 115 35 212 88 288 157 19 18 44 33 55
33 11 0 173 -52 360 -115 187 -64 348 -118 358 -122 10 -3 17 0 17 8 0 9 -55
32 -153 63 -212 68 -463 152 -522 175 -45 17 -50 22 -48 48 2 26 1 27 -12 10
-9 -13 -20 -17 -36 -12 -25 8 -44 -12 -28 -31 6 -8 2 -19 -12 -35 -17 -19 -20
-20 -15 -5 5 16 4 17 -8 7 -8 -7 -19 -10 -23 -8 -5 3 -40 -8 -78 -24 -86 -37
-216 -71 -251 -67 l-26 3 36 40 c20 22 44 49 55 61 14 16 21 50 31 158 7 75
17 131 21 125 5 -9 10 -4 14 14 4 15 11 27 16 27 5 0 9 30 9 66 0 41 -4 63
-10 59 -5 -3 -10 1 -10 10 0 10 -5 13 -12 9 -8 -5 -10 56 -6 243 l6 251 -128
36 c-70 20 -129 36 -131 36 -2 0 -71 -64 -154 -142z m105 -448 c0 -5 -4 -10
-10 -10 -5 0 -10 5 -10 10 0 6 5 10 10 10 6 0 10 -4 10 -10z m327 -52 c-3 -8
-6 -5 -6 6 -1 11 2 17 5 13 3 -3 4 -12 1 -19z m0 -50 c-3 -7 -5 -2 -5 12 0 14
2 19 5 13 2 -7 2 -19 0 -25z m-2011 -453 c-8 -8 -18 -15 -22 -15 -3 0 -1 7 6
15 7 8 17 15 22 15 5 0 3 -7 -6 -15z m1684 5 c0 -5 -7 -10 -15 -10 -8 0 -15 5
-15 10 0 6 7 10 15 10 8 0 15 -4 15 -10z"/>
<path d="M4025 2617 c-4 -18 -22 -97 -40 -177 -18 -80 -36 -169 -39 -199 -3
-30 -12 -64 -21 -77 -8 -13 -15 -25 -15 -27 0 -4 65 -29 109 -43 10 -3 11 -7
1 -19 -9 -11 -8 -14 8 -12 13 1 18 6 15 17 -4 11 -3 12 4 2 6 -7 17 -10 27 -6
13 5 10 -1 -8 -21 -14 -15 -24 -31 -21 -35 2 -4 34 -15 70 -25 64 -17 66 -17
81 1 15 18 15 18 11 -3 -7 -31 0 -29 18 7 9 17 21 30 28 30 8 0 7 -4 -3 -11
-12 -8 -10 -10 10 -8 49 3 71 -1 65 -11 -4 -7 2 -9 19 -4 20 5 26 2 26 -10 0
-10 9 -16 23 -16 24 0 66 48 102 119 18 36 119 401 112 407 -2 2 -118 33 -258
69 -140 37 -268 70 -286 75 -30 8 -32 6 -38 -23z m390 -626 c-3 -6 -11 -11
-17 -11 -6 0 -6 6 2 15 14 17 26 13 15 -4z"/>
<path d="M3061 2567 l-24 -42 30 28 c16 15 38 27 48 27 18 0 18 0 -1 15 -26
20 -26 20 -53 -28z"/>
<path d="M2834 2303 c-23 -31 -24 -34 -5 -18 22 19 46 55 38 55 -3 0 -17 -17
-33 -37z"/>
<path d="M721 2312 l-23 -19 41 -16 c52 -21 57 -21 88 3 l25 20 -28 11 c-53
20 -78 20 -103 1z"/>
<path d="M1129 2312 c-9 -4 -29 -23 -45 -42 l-29 -34 33 24 33 24 339 -113
c186 -62 344 -111 352 -108 17 6 37 -1 -342 125 -196 66 -324 113 -322 120 1
7 1 12 0 11 -2 0 -10 -3 -19 -7z"/>
<path d="M3540 2079 c-157 -32 -311 -63 -344 -69 -59 -9 -74 -15 -64 -26 4 -3
143 22 310 54 166 33 324 64 350 67 26 4 53 13 59 21 16 20 14 19 -311 -47z"/>
<path d="M4278 1993 c7 -3 16 -2 19 1 4 3 -2 6 -13 5 -11 0 -14 -3 -6 -6z"/>
<path d="M4158 1943 c7 -3 16 -2 19 1 4 3 -2 6 -13 5 -11 0 -14 -3 -6 -6z"/>
<path d="M4198 1933 c7 -3 16 -2 19 1 4 3 -2 6 -13 5 -11 0 -14 -3 -6 -6z"/>
<path d="M3975 1890 c-13 -21 -96 -403 -96 -445 -1 -28 -9 -66 -20 -87 -10
-20 -19 -43 -19 -50 0 -8 77 -40 193 -80 373 -129 387 -132 387 -90 0 10 7 27
15 38 13 16 14 16 9 2 -4 -12 -1 -18 10 -18 10 0 13 6 9 15 -3 10 -1 15 7 13
23 -5 68 102 125 295 30 103 55 193 55 200 0 14 -668 219 -675 207z"/>
<path d="M318 1485 c-33 -28 -34 -31 -10 -38 9 -3 33 -12 53 -20 35 -16 37
-15 70 13 l34 28 -36 16 c-65 27 -82 28 -111 1z"/>
<path d="M1911 1244 c-7 -8 -11 -17 -9 -20 3 -2 13 5 23 16 10 11 14 20 9 20
-5 -1 -15 -8 -23 -16z"/>
<path d="M2865 1228 c-7 -33 -33 -200 -45 -291 -14 -109 -13 -159 5 -185 13
-17 13 -21 2 -16 -10 3 -30 -20 -62 -71 -26 -42 -45 -78 -43 -81 10 -10 583
-242 589 -238 4 2 26 35 49 74 37 61 44 68 61 59 16 -8 23 -3 49 37 16 26 34
72 41 103 6 31 26 126 44 211 18 85 30 158 27 162 -7 7 -694 258 -706 258 -3
0 -8 -10 -11 -22z"/>
<path d="M1093 1022 c5 -172 10 -228 22 -252 8 -16 20 -30 26 -30 6 0 8 -4 4
-9 -3 -5 5 -17 17 -27 13 -9 16 -14 7 -11 -10 3 -35 11 -56 17 l-40 12 -46
-49 c-25 -27 -55 -60 -66 -74 l-20 -26 67 -31 c37 -17 156 -71 265 -122 l197
-91 33 38 c71 83 86 97 87 85 0 -8 5 -10 13 -5 6 4 17 8 23 9 6 1 29 21 51 45
l40 42 6 221 c3 121 3 224 -2 229 -4 4 7 24 26 43 18 20 31 40 27 45 -3 5 -10
7 -15 3 -5 -3 -7 -10 -4 -15 4 -5 2 -9 -2 -9 -5 0 -21 -12 -36 -26 -21 -19
-35 -24 -52 -20 -13 3 -138 53 -278 110 -140 57 -264 107 -277 111 l-23 7 6
-220z"/>
<path d="M1862 1194 c-7 -8 -12 -19 -10 -23 2 -5 11 2 21 15 19 26 10 33 -11
8z"/>
<path d="M4009 1184 c-5 -15 -12 -30 -14 -34 -4 -7 124 -60 144 -60 9 0 34 52
32 66 0 4 -6 9 -13 10 -7 1 -40 12 -72 23 -33 12 -61 21 -63 21 -2 0 -8 -12
-14 -26z"/>
<path d="M3800 1160 c8 -5 20 -10 25 -10 6 0 3 5 -5 10 -8 5 -19 10 -25 10 -5
0 -3 -5 5 -10z"/>
<path d="M4431 1144 c0 -11 3 -14 6 -6 3 7 2 16 -1 19 -3 4 -6 -2 -5 -13z"/>
<path d="M1816 1134 c-23 -23 -20 -30 4 -9 11 10 20 20 20 22 0 7 -9 2 -24
-13z"/>
<path d="M3860 1142 c8 -5 26 -13 40 -16 17 -5 20 -4 10 2 -8 5 -26 13 -40 16
-17 5 -20 4 -10 -2z"/>
<path d="M1780 1100 c0 -5 5 -10 11 -10 5 0 7 5 4 10 -3 6 -8 10 -11 10 -2 0
-4 -4 -4 -10z"/>
<path d="M2882 421 l-22 -39 74 -31 c41 -17 77 -31 79 -31 11 0 47 74 40 81
-8 8 -132 59 -143 59 -3 0 -16 -18 -28 -39z"/>
<path d="M1061 410 l-32 -40 63 -30 c35 -17 68 -30 73 -30 10 0 65 63 65 74 0
7 -85 50 -116 60 -16 5 -28 -3 -53 -34z"/>
</g>
</svg>
