<?xml version="1.0" standalone="no"?>
<!DOCTYPE svg PUBLIC "-//W3C//DTD SVG 20010904//EN"
 "http://www.w3.org/TR/2001/REC-SVG-20010904/DTD/svg10.dtd">
<svg version="1.0" xmlns="http://www.w3.org/2000/svg"
 width="474.000000pt" height="355.000000pt" viewBox="0 0 474.000000 355.000000"
 preserveAspectRatio="xMidYMid meet">
<metadata>
Created by potrace 1.16, written by Peter Selinger 2001-2019
</metadata>
<g transform="translate(0.000000,355.000000) scale(0.100000,-0.100000)"
fill="#000000" stroke="none">
<path d="M925 3250 c3 -5 8 -10 11 -10 2 0 4 5 4 10 0 6 -5 10 -11 10 -5 0 -7
-4 -4 -10z"/>
<path d="M1450 3250 c0 -5 5 -10 10 -10 6 0 10 5 10 10 0 6 -4 10 -10 10 -5 0
-10 -4 -10 -10z"/>
<path d="M605 3240 c3 -5 8 -10 11 -10 2 0 4 5 4 10 0 6 -5 10 -11 10 -5 0 -7
-4 -4 -10z"/>
<path d="M278 3233 c7 -3 16 -2 19 1 4 3 -2 6 -13 5 -11 0 -14 -3 -6 -6z"/>
<path d="M838 3228 c9 -9 15 -9 24 0 9 9 7 12 -12 12 -19 0 -21 -3 -12 -12z"/>
<path d="M1385 3230 c-3 -5 -1 -10 4 -10 6 0 11 5 11 10 0 6 -2 10 -4 10 -3 0
-8 -4 -11 -10z"/>
<path d="M686 3221 c-4 -5 -2 -12 3 -15 5 -4 12 -2 15 3 4 5 2 12 -3 15 -5 4
-12 2 -15 -3z"/>
<path d="M920 3220 c0 -5 5 -10 10 -10 6 0 10 5 10 10 0 6 -4 10 -10 10 -5 0
-10 -4 -10 -10z"/>
<path d="M630 3210 c0 -5 5 -10 10 -10 6 0 10 5 10 10 0 6 -4 10 -10 10 -5 0
-10 -4 -10 -10z"/>
<path d="M951 3204 c0 -11 3 -14 6 -6 3 7 2 16 -1 19 -3 4 -6 -2 -5 -13z"/>
<path d="M1275 3210 c3 -5 8 -10 11 -10 2 0 4 5 4 10 0 6 -5 10 -11 10 -5 0
-7 -4 -4 -10z"/>
<path d="M720 3186 c0 -9 5 -16 10 -16 6 0 10 4 10 9 0 6 -4 13 -10 16 -5 3
-10 -1 -10 -9z"/>
<path d="M840 3180 c0 -5 5 -10 10 -10 6 0 10 5 10 10 0 6 -4 10 -10 10 -5 0
-10 -4 -10 -10z"/>
<path d="M1251 3174 c0 -11 3 -14 6 -6 3 7 2 16 -1 19 -3 4 -6 -2 -5 -13z"/>
<path d="M640 3159 c0 -5 9 -9 20 -9 11 0 20 2 20 4 0 2 -9 6 -20 9 -11 3 -20
1 -20 -4z"/>
<path d="M1340 3160 c-9 -6 -10 -10 -3 -10 6 0 15 5 18 10 8 12 4 12 -15 0z"/>
<path d="M1055 3150 c3 -5 8 -10 11 -10 2 0 4 5 4 10 0 6 -5 10 -11 10 -5 0
-7 -4 -4 -10z"/>
<path d="M950 3146 c0 -2 7 -9 15 -16 13 -11 14 -10 9 4 -5 14 -24 23 -24 12z"/>
<path d="M1150 3139 c0 -5 5 -7 10 -4 6 3 10 8 10 11 0 2 -4 4 -10 4 -5 0 -10
-5 -10 -11z"/>
<path d="M1288 3143 c7 -3 16 -2 19 1 4 3 -2 6 -13 5 -11 0 -14 -3 -6 -6z"/>
<path d="M230 3118 c0 -19 2 -20 10 -8 13 19 13 30 0 30 -5 0 -10 -10 -10 -22z"/>
<path d="M1180 3126 c0 -9 5 -16 10 -16 6 0 10 4 10 9 0 6 -4 13 -10 16 -5 3
-10 -1 -10 -9z"/>
<path d="M420 3120 c-9 -6 -10 -10 -3 -10 6 0 15 5 18 10 8 12 4 12 -15 0z"/>
<path d="M1010 3119 c0 -5 5 -7 10 -4 6 3 10 8 10 11 0 2 -4 4 -10 4 -5 0 -10
-5 -10 -11z"/>
<path d="M170 3100 c0 -5 5 -10 11 -10 5 0 7 5 4 10 -3 6 -8 10 -11 10 -2 0
-4 -4 -4 -10z"/>
<path d="M1230 3100 c0 -5 5 -10 10 -10 6 0 10 5 10 10 0 6 -4 10 -10 10 -5 0
-10 -4 -10 -10z"/>
<path d="M1318 3065 c2 -14 8 -25 12 -25 4 0 5 11 2 25 -2 14 -8 25 -12 25 -4
0 -5 -11 -2 -25z"/>
<path d="M180 3060 c0 -5 5 -10 11 -10 5 0 7 5 4 10 -3 6 -8 10 -11 10 -2 0
-4 -4 -4 -10z"/>
<path d="M231 3034 c0 -11 3 -14 6 -6 3 7 2 16 -1 19 -3 4 -6 -2 -5 -13z"/>
<path d="M1256 3034 c-3 -8 -10 -12 -16 -9 -5 3 -10 1 -10 -4 0 -6 9 -11 20
-11 13 0 20 7 20 20 0 24 -6 26 -14 4z"/>
<path d="M1406 2995 c-3 -8 -1 -15 4 -15 6 0 10 7 10 15 0 8 -2 15 -4 15 -2 0
-6 -7 -10 -15z"/>
<path d="M235 2980 c-3 -5 -1 -10 4 -10 6 0 11 5 11 10 0 6 -2 10 -4 10 -3 0
-8 -4 -11 -10z"/>
<path d="M592 2968 c-17 -17 -15 -47 4 -55 23 -9 51 23 38 44 -14 22 -27 26
-42 11z"/>
<path d="M460 2960 c19 -13 30 -13 30 0 0 6 -10 10 -22 10 -19 0 -20 -2 -8
-10z"/>
<path d="M510 2956 c0 -2 9 -6 20 -9 11 -3 20 -1 20 4 0 5 -9 9 -20 9 -11 0
-20 -2 -20 -4z"/>
<path d="M220 2940 c0 -5 5 -10 11 -10 5 0 7 5 4 10 -3 6 -8 10 -11 10 -2 0
-4 -4 -4 -10z"/>
<path d="M673 2933 c9 -2 23 -2 30 0 6 3 -1 5 -18 5 -16 0 -22 -2 -12 -5z"/>
<path d="M720 2930 c0 -5 12 -10 28 -9 24 0 25 1 7 9 -27 12 -35 12 -35 0z"/>
<path d="M860 2910 c0 -15 7 -20 29 -20 16 0 36 -3 44 -6 9 -3 16 2 19 14 5
16 -1 21 -31 26 -55 9 -61 8 -61 -14z"/>
<path d="M1311 2904 c0 -11 3 -14 6 -6 3 7 2 16 -1 19 -3 4 -6 -2 -5 -13z"/>
<path d="M1410 2890 c0 -5 5 -10 10 -10 6 0 10 5 10 10 0 6 -4 10 -10 10 -5 0
-10 -4 -10 -10z"/>
<path d="M2918 2813 c7 -3 16 -2 19 1 4 3 -2 6 -13 5 -11 0 -14 -3 -6 -6z"/>
<path d="M2988 2813 c7 -3 16 -2 19 1 4 3 -2 6 -13 5 -11 0 -14 -3 -6 -6z"/>
<path d="M1360 2795 c0 -8 4 -15 10 -15 5 0 7 7 4 15 -4 8 -8 15 -10 15 -2 0
-4 -7 -4 -15z"/>
<path d="M3629 2793 c-13 -16 -12 -17 4 -4 9 7 17 15 17 17 0 8 -8 3 -21 -13z"/>
<path d="M260 2790 c0 -5 5 -10 10 -10 6 0 10 5 10 10 0 6 -4 10 -10 10 -5 0
-10 -4 -10 -10z"/>
<path d="M3859 2798 c-1 -2 -3 -13 -4 -25 -2 -18 1 -20 14 -14 9 5 23 6 31 3
11 -4 10 1 -4 17 -17 18 -33 27 -37 19z m21 -18 c0 -5 -4 -10 -10 -10 -5 0
-10 5 -10 10 0 6 5 10 10 10 6 0 10 -4 10 -10z"/>
<path d="M2770 2759 c-22 -18 -22 -19 -3 -10 12 6 25 16 28 21 9 15 3 12 -25
-11z"/>
<path d="M3114 2769 c-4 -7 -3 -9 4 -5 5 3 24 -5 40 -19 31 -26 53 -35 30 -12
-31 31 -66 48 -74 36z"/>
<path d="M2719 2713 c-13 -17 -13 -17 6 -3 11 8 22 16 24 17 2 2 0 3 -6 3 -6
0 -17 -8 -24 -17z"/>
<path d="M3562 2701 c-6 -17 -9 -31 -6 -31 7 0 25 52 20 57 -2 2 -8 -10 -14
-26z"/>
<path d="M3691 2696 c-9 -11 -9 -16 1 -22 7 -4 10 -4 6 1 -4 4 -3 14 3 22 6 7
9 13 6 13 -2 0 -10 -6 -16 -14z"/>
<path d="M3225 2680 c10 -11 20 -20 23 -20 3 0 -3 9 -13 20 -10 11 -20 20 -23
20 -3 0 3 -9 13 -20z"/>
<path d="M3743 2645 c0 -22 2 -30 4 -17 2 12 2 30 0 40 -3 9 -5 -1 -4 -23z"/>
<path d="M3780 2661 c0 -5 7 -12 16 -15 24 -9 13 -49 -16 -57 l-25 -7 26 -1
c41 -2 55 54 19 77 -11 7 -20 8 -20 3z"/>
<path d="M878 2653 c6 -2 18 -2 25 0 6 3 1 5 -13 5 -14 0 -19 -2 -12 -5z"/>
<path d="M958 2643 c6 -2 18 -2 25 0 6 3 1 5 -13 5 -14 0 -19 -2 -12 -5z"/>
<path d="M410 2621 c0 -16 17 -20 151 -36 129 -16 152 -16 160 -4 4 8 5 17 1
20 -8 8 -240 39 -285 39 -20 0 -27 -5 -27 -19z"/>
<path d="M3766 2625 c4 -8 11 -15 16 -15 6 0 5 6 -2 15 -7 8 -14 15 -16 15 -2
0 -1 -7 2 -15z"/>
<path d="M1118 2623 c7 -3 16 -2 19 1 4 3 -2 6 -13 5 -11 0 -14 -3 -6 -6z"/>
<path d="M3260 2611 c0 -6 4 -13 10 -16 6 -3 7 1 4 9 -7 18 -14 21 -14 7z"/>
<path d="M958 2603 c6 -2 18 -2 25 0 6 3 1 5 -13 5 -14 0 -19 -2 -12 -5z"/>
<path d="M2696 2588 c3 -5 10 -6 15 -3 13 9 11 12 -6 12 -8 0 -12 -4 -9 -9z"/>
<path d="M3927 2581 c4 -18 -32 -75 -60 -94 -13 -8 -43 -22 -68 -31 -24 -8
-36 -15 -27 -16 23 0 98 35 126 59 22 19 62 98 43 87 -5 -3 -11 -3 -14 1 -2 5
-2 2 0 -6z"/>
<path d="M820 2571 c0 -16 10 -21 58 -26 31 -4 101 -13 155 -19 53 -7 97 -9
97 -5 0 4 2 14 5 21 4 11 -25 18 -137 31 -178 21 -178 21 -178 -2z"/>
<path d="M2882 2574 c-7 -8 -8 -14 -3 -14 10 0 25 19 20 25 -2 1 -10 -3 -17
-11z"/>
<path d="M3003 2562 c-1 -22 0 -24 9 -8 6 10 6 22 2 26 -5 5 -10 -3 -11 -18z"/>
<path d="M3072 2574 c-7 -8 -8 -14 -3 -14 10 0 25 19 20 25 -2 1 -10 -3 -17
-11z"/>
<path d="M3205 2570 c-19 -8 -19 -9 3 -9 12 -1 22 4 22 9 0 6 -1 10 -2 9 -2 0
-12 -4 -23 -9z"/>
<path d="M3277 2559 c4 -13 8 -18 11 -10 2 7 -1 18 -6 23 -8 8 -9 4 -5 -13z"/>
<path d="M2752 2550 c0 -14 2 -19 5 -12 2 6 2 18 0 25 -3 6 -5 1 -5 -13z"/>
<path d="M3720 2560 c-8 -5 -12 -12 -9 -15 4 -3 12 1 19 10 14 17 11 19 -10 5z"/>
<path d="M3058 2525 c2 -14 6 -25 8 -25 2 0 4 11 4 25 0 14 -4 25 -9 25 -4 0
-6 -11 -3 -25z"/>
<path d="M2790 2530 c0 -5 6 -7 14 -4 11 4 16 -4 19 -33 l4 -38 1 43 c2 36 -1
42 -18 42 -11 0 -20 -4 -20 -10z"/>
<path d="M2860 2476 c0 -35 -5 -67 -10 -69 -6 -3 -5 -4 2 -3 8 2 14 24 16 62
2 32 9 62 15 66 8 5 6 8 -5 8 -15 0 -18 -10 -18 -64z"/>
<path d="M3162 2520 c0 -14 2 -19 5 -12 2 6 2 18 0 25 -3 6 -5 1 -5 -13z"/>
<path d="M3195 2520 c-8 -13 5 -13 25 0 13 8 13 10 -2 10 -9 0 -20 -4 -23 -10z"/>
<path d="M1315 2510 c-3 -5 -1 -10 4 -10 6 0 11 5 11 10 0 6 -2 10 -4 10 -3 0
-8 -4 -11 -10z"/>
<path d="M2902 2500 c0 -14 2 -19 5 -12 2 6 2 18 0 25 -3 6 -5 1 -5 -13z"/>
<path d="M1346 2495 c-3 -9 -2 -14 3 -10 5 3 11 0 13 -7 3 -8 6 -9 11 -1 4 6
1 16 -7 22 -10 9 -15 8 -20 -4z"/>
<path d="M2792 2490 c0 -14 2 -19 5 -12 2 6 2 18 0 25 -3 6 -5 1 -5 -13z"/>
<path d="M2977 2503 c-4 -3 -7 -13 -7 -22 1 -13 3 -13 11 2 11 19 8 33 -4 20z"/>
<path d="M3660 2500 c-9 -6 -10 -10 -3 -10 6 0 15 5 18 10 8 12 4 12 -15 0z"/>
<path d="M2930 2495 c0 -5 5 -17 10 -25 5 -8 10 -10 10 -5 0 6 -5 17 -10 25
-5 8 -10 11 -10 5z"/>
<path d="M3637 2479 c12 -12 24 -21 27 -18 2 2 -8 13 -22 23 l-27 19 22 -24z"/>
<path d="M248 2483 c7 -3 16 -2 19 1 4 3 -2 6 -13 5 -11 0 -14 -3 -6 -6z"/>
<path d="M2713 2473 c9 -2 25 -2 35 0 9 3 1 5 -18 5 -19 0 -27 -2 -17 -5z"/>
<path d="M3101 2462 c-1 -19 4 -22 28 -20 23 2 27 6 22 23 -4 17 -6 18 -9 3
-2 -10 -10 -18 -17 -18 -7 0 -16 8 -18 18 -4 13 -5 11 -6 -6z"/>
<path d="M3253 2468 c0 -7 -3 -20 -5 -28 -3 -8 -3 -12 -1 -7 3 4 9 5 14 2 5
-4 6 2 2 11 -5 13 -3 15 8 9 12 -8 12 -6 0 8 -16 20 -18 21 -18 5z"/>
<path d="M2891 2454 c0 -11 3 -14 6 -6 3 7 2 16 -1 19 -3 4 -6 -2 -5 -13z"/>
<path d="M3053 2441 c1 -16 5 -27 10 -24 10 6 9 53 -3 53 -5 0 -8 -13 -7 -29z"/>
<path d="M1295 2450 c3 -5 10 -10 16 -10 5 0 9 5 9 10 0 6 -7 10 -16 10 -8 0
-12 -4 -9 -10z"/>
<path d="M2701 2444 c0 -11 3 -14 6 -6 3 7 2 16 -1 19 -3 4 -6 -2 -5 -13z"/>
<path d="M2995 2439 c-4 -11 -4 -23 -1 -26 3 -4 6 1 6 11 0 9 4 14 10 11 6 -3
7 1 4 9 -8 21 -11 20 -19 -5z"/>
<path d="M3200 2450 c-9 -6 -10 -10 -3 -10 6 0 15 5 18 10 8 12 4 12 -15 0z"/>
<path d="M2790 2438 c0 -23 -18 -32 -36 -17 -12 10 -13 9 -8 -5 7 -19 31 -21
49 -3 8 9 10 19 4 28 -7 11 -9 11 -9 -3z"/>
<path d="M2669 2418 c15 -21 31 -23 31 -6 0 6 -3 8 -7 5 -3 -4 -13 -1 -22 6
-14 11 -14 10 -2 -5z"/>
<path d="M2816 2413 c-6 -14 -5 -15 5 -6 7 7 10 15 7 18 -3 3 -9 -2 -12 -12z"/>
<path d="M2956 2412 c-3 -5 1 -9 9 -9 8 0 12 4 9 9 -3 4 -7 8 -9 8 -2 0 -6 -4
-9 -8z"/>
<path d="M3116 2412 c-3 -5 1 -9 9 -9 8 0 12 4 9 9 -3 4 -7 8 -9 8 -2 0 -6 -4
-9 -8z"/>
<path d="M1315 2400 c-4 -6 -3 -16 3 -22 13 -13 23 4 13 21 -7 10 -10 10 -16
1z"/>
<path d="M325 2390 c6 -10 4 -12 -9 -7 -12 5 -16 3 -14 -5 6 -18 43 -16 43 1
0 8 -6 16 -14 19 -9 3 -11 0 -6 -8z"/>
<path d="M2700 2390 c-9 -6 -10 -10 -3 -10 6 0 15 5 18 10 8 12 4 12 -15 0z"/>
<path d="M3198 2383 c7 -3 16 -2 19 1 4 3 -2 6 -13 5 -11 0 -14 -3 -6 -6z"/>
<path d="M160 2339 c0 -5 5 -7 10 -4 6 3 10 8 10 11 0 2 -4 4 -10 4 -5 0 -10
-5 -10 -11z"/>
<path d="M1590 2340 c0 -5 18 -10 40 -10 22 0 40 5 40 10 0 6 -18 10 -40 10
-22 0 -40 -4 -40 -10z"/>
<path d="M2670 2333 c0 -7 4 -13 9 -13 5 0 11 6 14 13 3 8 -1 14 -9 14 -8 0
-14 -6 -14 -14z"/>
<path d="M3219 2329 c-9 -17 -8 -20 2 -14 9 6 11 3 6 -8 -10 -26 -1 -20 24 16
l23 32 -24 -20 c-20 -17 -23 -18 -17 -2 9 24 0 21 -14 -4z"/>
<path d="M310 2326 c0 -9 5 -16 10 -16 6 0 10 4 10 9 0 6 -4 13 -10 16 -5 3
-10 -1 -10 -9z"/>
<path d="M1176 2316 c6 -16 4 -18 -9 -13 -9 3 -17 2 -17 -4 0 -15 30 -23 43
-10 8 8 7 16 -6 29 -17 16 -18 16 -11 -2z"/>
<path d="M1461 2284 c0 -11 3 -14 6 -6 3 7 2 16 -1 19 -3 4 -6 -2 -5 -13z"/>
<path d="M1360 2274 c0 -8 5 -12 10 -9 6 4 8 11 5 16 -9 14 -15 11 -15 -7z"/>
<path d="M2704 2272 c2 -4 26 -23 53 -42 31 -21 41 -26 29 -12 -18 21 -92 70
-82 54z"/>
<path d="M3183 2255 c-15 -13 -23 -24 -18 -24 16 0 50 23 53 37 3 17 -3 15
-35 -13z"/>
<path d="M235 2259 c-4 -6 -5 -12 -2 -15 2 -3 7 2 10 11 7 17 1 20 -8 4z"/>
<path d="M1303 2240 c1 -11 5 -20 9 -20 11 0 10 28 -1 35 -6 3 -9 -4 -8 -15z"/>
<path d="M719 2198 c-12 -29 -25 -56 -27 -60 -2 -5 26 -8 62 -8 l65 0 -27 60
c-15 32 -32 59 -38 60 -6 0 -22 -24 -35 -52z"/>
<path d="M935 2240 c-3 -5 -1 -10 4 -10 6 0 11 5 11 10 0 6 -2 10 -4 10 -3 0
-8 -4 -11 -10z"/>
<path d="M3252 2234 c10 -10 20 -16 22 -13 3 3 -5 11 -17 18 -21 13 -21 12 -5
-5z"/>
<path d="M458 2233 c7 -3 16 -2 19 1 4 3 -2 6 -13 5 -11 0 -14 -3 -6 -6z"/>
<path d="M491 2214 c0 -11 3 -14 6 -6 3 7 2 16 -1 19 -3 4 -6 -2 -5 -13z"/>
<path d="M681 2214 c0 -11 3 -14 6 -6 3 7 2 16 -1 19 -3 4 -6 -2 -5 -13z"/>
<path d="M3205 2220 c3 -5 1 -10 -5 -10 -6 0 -9 -4 -5 -9 3 -5 0 -13 -6 -17
-8 -4 -9 -3 -5 4 12 20 -20 14 -38 -7 -11 -12 -14 -21 -7 -26 6 -3 11 -11 11
-17 0 -7 -6 -6 -15 2 -8 7 -15 8 -15 2 0 -5 7 -15 16 -23 16 -13 19 -12 45 34
13 23 62 23 57 0 -2 -10 -10 -18 -18 -19 -42 -3 -48 -5 -52 -22 -4 -15 1 -18
27 -18 18 1 31 5 27 10 -3 5 5 7 16 4 19 -5 23 0 32 35 6 23 12 46 14 52 1 5
-14 15 -33 22 -44 15 -54 16 -46 3z"/>
<path d="M420 2210 c0 -5 4 -10 9 -10 6 0 13 5 16 10 3 6 -1 10 -9 10 -9 0
-16 -4 -16 -10z"/>
<path d="M998 2213 c7 -3 16 -2 19 1 4 3 -2 6 -13 5 -11 0 -14 -3 -6 -6z"/>
<path d="M3120 2203 c-13 -15 -12 -16 4 -10 10 4 20 7 22 7 2 0 4 5 4 10 0 15
-13 12 -30 -7z"/>
<path d="M4588 2192 c9 -10 19 -17 21 -16 6 5 -20 34 -30 34 -5 0 -1 -8 9 -18z"/>
<path d="M4470 2188 c0 -3 -6 -21 -14 -40 -13 -31 -13 -37 6 -66 26 -41 35
-35 13 8 -13 25 -14 38 -6 62 6 17 9 34 6 36 -3 3 -5 3 -5 0z"/>
<path d="M2918 2163 c7 -3 16 -2 19 1 4 3 -2 6 -13 5 -11 0 -14 -3 -6 -6z"/>
<path d="M4320 2148 c0 -6 -3 -8 -7 -5 -3 4 -13 1 -21 -6 -12 -9 -16 -9 -19 0
-5 13 -90 -86 -86 -99 2 -4 -4 -5 -12 -2 -8 4 -17 -1 -21 -10 -3 -9 -16 -16
-27 -16 -20 0 -20 0 -1 -15 10 -8 27 -15 37 -15 9 0 17 -4 17 -10 0 -12 -28
-13 -85 -3 -37 6 -38 7 -15 15 20 6 -38 2 -98 -6 -23 -4 -34 -23 -38 -67 -2
-27 0 -39 5 -30 6 9 11 10 15 2 4 -6 10 -9 14 -7 4 2 5 -23 4 -56 -3 -48 -7
-58 -19 -54 -13 5 -14 0 -8 -30 9 -49 -1 -54 -103 -54 -80 0 -83 -1 -80 -22 3
-20 9 -22 91 -23 87 0 88 0 82 22 -4 19 -1 23 16 23 14 0 19 5 16 14 -3 8 1
13 11 12 9 0 16 5 14 12 -1 6 2 12 8 12 5 0 10 7 10 15 0 8 6 15 13 15 9 0 9
2 1 8 -15 9 -21 53 -11 70 6 8 2 12 -10 13 -11 0 -13 3 -5 6 6 2 9 10 5 16 -4
6 0 8 9 4 10 -3 15 0 14 11 -1 12 10 19 34 23 19 4 29 7 23 8 -21 2 -15 17 8
18 11 1 23 -5 26 -13 3 -8 9 -14 15 -14 5 0 6 5 3 10 -3 6 -2 10 4 10 17 0 24
-22 10 -32 -10 -7 -8 -8 9 -5 12 3 22 1 22 -4 0 -5 -4 -9 -10 -9 -5 0 -10 -5
-10 -11 0 -5 5 -7 10 -4 15 9 12 -12 -5 -46 -9 -16 -30 -36 -48 -43 -18 -8
-26 -15 -19 -15 7 -1 10 -5 7 -11 -3 -5 3 -10 14 -10 13 0 18 5 15 13 -3 8 1
19 8 25 11 9 13 5 10 -23 -4 -32 -6 -34 -33 -28 -24 5 -28 3 -23 -11 6 -15 -5
-21 -30 -17 -5 1 -6 -5 -3 -14 4 -8 2 -15 -3 -15 -15 0 -12 -37 3 -43 7 -3 4
-6 -6 -6 -10 -1 -15 -6 -12 -11 4 -6 9 -8 13 -6 4 2 7 -7 7 -20 0 -13 -5 -24
-12 -24 -6 0 -13 -6 -15 -12 -3 -8 -9 -4 -17 9 -9 18 -8 30 4 59 13 32 13 37
0 51 -8 8 -15 21 -15 30 0 13 -3 13 -15 3 -10 -9 -12 -16 -5 -25 6 -8 6 -15
-2 -23 -9 -9 -9 -12 2 -12 13 0 13 -2 0 -10 -18 -11 -34 21 -16 32 7 5 4 8 -6
8 -21 0 -22 -8 -8 -44 5 -14 17 -26 26 -26 10 0 14 -6 11 -14 -3 -8 5 -24 19
-37 13 -12 24 -30 25 -38 0 -11 2 -12 6 -3 2 6 9 12 14 12 6 0 7 -4 4 -10 -3
-5 -2 -10 3 -10 5 0 19 -8 30 -19 22 -18 22 -23 22 -368 0 -258 -3 -352 -12
-361 -18 -18 -1417 -17 -1441 1 -15 11 -17 55 -19 499 l-3 486 -24 -19 -24
-19 2 -487 c1 -529 0 -522 57 -543 35 -14 1422 -13 1460 0 59 21 59 22 62 416
l3 362 -27 6 c-14 4 -24 10 -21 13 4 3 20 0 37 -7 25 -10 33 -10 47 1 15 12
16 12 10 -5 -5 -14 -3 -17 8 -13 8 4 17 2 20 -3 10 -16 33 -11 53 10 15 16 24
19 43 11 13 -5 18 -10 10 -10 -8 -1 -12 -3 -10 -6 3 -2 18 0 35 4 16 5 23 10
17 10 -7 1 -13 9 -12 19 0 10 3 12 6 4 3 -9 12 -7 30 8 14 11 32 20 39 20 8 0
14 4 14 9 0 5 7 12 16 15 15 6 15 4 3 -10 -12 -15 -12 -17 1 -12 8 2 20 15 26
27 6 12 20 28 30 36 11 8 14 15 7 15 -7 0 -10 7 -7 15 5 11 2 13 -10 9 -9 -3
-16 -2 -16 4 0 20 29 21 35 1 6 -16 8 -17 21 -5 20 20 18 31 -3 15 -15 -11
-16 -11 -6 0 7 8 9 26 6 41 -3 17 0 31 8 35 7 5 10 4 6 -3 -4 -5 -3 -21 3 -34
l10 -23 -3 25 c-1 16 3 24 11 22 7 -1 12 3 11 10 -2 7 0 23 5 35 4 13 2 31 -6
45 -14 25 -18 109 -5 119 13 9 -4 41 -19 35 -8 -3 -14 1 -14 10 0 8 5 12 11 8
13 -8 -1 21 -26 51 -16 19 -16 19 -4 -5 9 -21 9 -23 -2 -12 -20 19 -39 14 -39
-10 0 -13 -3 -33 -6 -45 -6 -20 -11 -22 -48 -18 -40 4 -40 4 -7 -4 19 -5 42
-20 52 -32 18 -24 22 -59 6 -59 -4 0 -6 -4 -3 -8 3 -5 -6 -15 -19 -22 -19 -10
-22 -16 -14 -27 9 -10 8 -13 -2 -13 -11 0 -11 -2 1 -10 13 -8 12 -10 -3 -10
-10 0 -15 -4 -12 -10 3 -5 -1 -10 -10 -10 -12 0 -14 4 -7 17 7 11 6 21 -3 30
-20 20 -23 17 -26 -31 -3 -37 -2 -42 10 -33 12 10 13 8 9 -10 -6 -24 7 -33 15
-10 2 6 4 0 3 -15 -1 -26 -16 -41 -16 -17 0 8 -6 7 -17 -2 -15 -12 -16 -12
-10 4 6 16 -8 23 -37 18 -5 -1 -13 4 -18 11 -7 9 -8 6 -5 -10 3 -13 1 -20 -5
-16 -5 3 -6 20 -3 37 3 18 3 28 -2 22 -4 -5 -17 -17 -27 -25 -18 -14 -19 -13
-13 3 3 9 3 17 -2 17 -5 0 -7 20 -5 45 l4 45 -37 0 -38 0 -2 -62 c-1 -35 -3
-71 -3 -81 -1 -15 -6 -14 -35 10 -36 30 -38 38 -25 98 9 39 9 39 6 -13 -3 -45
0 -54 18 -64 19 -10 20 -10 7 5 -17 22 -20 269 -2 275 6 2 11 -1 11 -8 0 -6 4
-9 9 -5 6 3 8 -3 6 -15 -2 -11 1 -22 6 -26 6 -3 8 -17 5 -30 -5 -19 -2 -24 14
-24 11 0 20 -4 20 -8 0 -4 9 -8 20 -9 13 -1 20 4 20 16 0 24 -23 43 -44 35
-11 -4 -16 -1 -16 10 0 9 8 19 18 23 9 3 26 13 37 22 11 9 17 12 13 7 -8 -10
32 -49 41 -41 3 4 -1 11 -9 16 -13 9 -13 10 0 6 9 -2 15 -15 14 -33 0 -16 4
-32 10 -36 7 -6 6 -11 -4 -18 -12 -7 -12 -12 -2 -22 17 -17 15 -28 -4 -28 -12
0 -14 -5 -9 -17 4 -10 10 -33 14 -52 3 -19 11 -36 16 -38 6 -2 9 34 7 99 -4
121 2 155 23 138 11 -9 15 -9 15 -1 0 6 14 11 30 11 25 0 30 4 30 24 0 13 7
27 16 30 21 8 9 24 -31 40 -38 16 -67 62 -58 94 3 13 1 22 -6 22 -6 0 -8 -8
-4 -17 6 -17 5 -17 -14 0 -11 9 -27 17 -37 17 -9 0 -14 5 -11 10 3 6 -3 10
-14 10 -12 0 -21 -5 -21 -12z m40 -28 c0 -5 -9 -10 -21 -10 -11 0 -17 5 -14
10 3 6 13 10 21 10 8 0 14 -4 14 -10z m47 -51 c1 -19 -1 -26 -3 -16 -3 9 -10
17 -15 17 -5 0 -9 9 -9 21 0 35 25 15 27 -22z m-177 -8 c0 -5 -7 -12 -16 -15
-14 -5 -15 -4 -4 9 14 17 20 19 20 6z m110 -21 c0 -10 -4 -22 -10 -25 -6 -4
-10 7 -10 25 0 18 4 29 10 25 6 -3 10 -15 10 -25z m-57 -24 c8 -19 -15 -37
-32 -26 -17 10 -7 40 13 40 7 0 16 -6 19 -14z m-240 -53 c-7 -2 -19 -2 -25 0
-7 3 -2 5 12 5 14 0 19 -2 13 -5z m-50 -21 c-5 -11 -7 -11 -15 0 -5 8 -6 2 -2
-16 5 -21 4 -27 -5 -22 -11 7 -15 38 -6 48 11 11 33 4 28 -10z m23 -40 c-4 -3
-11 -1 -18 6 -8 8 -8 15 3 28 13 16 14 16 17 -5 2 -13 1 -25 -2 -29z m41 26
c-3 -8 -6 -5 -6 6 -1 11 2 17 5 13 3 -3 4 -12 1 -19z m123 12 c0 -5 -2 -10 -4
-10 -3 0 -8 5 -11 10 -3 6 -1 10 4 10 6 0 11 -4 11 -10z m399 -66 c-16 -19
-26 -18 -32 6 -3 11 -1 20 4 20 5 0 9 8 9 18 0 14 2 15 10 2 8 -12 10 -10 11
10 2 19 3 17 6 -8 3 -18 -1 -40 -8 -48z m14 -78 c15 -22 15 -27 -8 -73 -13
-26 -24 -43 -25 -38 0 6 -5 3 -10 -5 -9 -13 -11 -13 -20 0 -7 11 -4 19 12 31
20 16 20 17 2 27 -11 7 -14 12 -6 13 6 1 17 2 24 3 18 2 20 22 3 36 -19 16
-19 30 -1 30 7 0 21 -11 29 -24z m-302 -153 c-8 -15 -10 -10 -11 23 0 22 3 44
8 48 11 12 14 -52 3 -71z m-127 15 c-4 -6 0 -14 7 -19 10 -6 8 -9 -8 -9 -25 0
-26 2 -16 51 6 31 7 31 15 10 4 -13 5 -27 2 -33z m-44 -24 c0 -8 12 -19 26
-24 29 -11 28 -35 -2 -35 -12 0 -20 8 -22 23 -2 12 -8 22 -13 22 -5 0 -9 9 -9
21 0 11 5 17 10 14 6 -3 10 -13 10 -21z m400 -49 c0 -8 -6 -15 -14 -15 -17 0
-28 14 -19 24 12 12 33 6 33 -9z m-400 -26 c0 -7 8 -18 18 -26 16 -13 15 -14
-8 -8 -14 4 -33 7 -42 8 -16 1 -16 3 -1 19 18 20 33 23 33 7z m360 -29 c0 -5
-7 -10 -16 -10 -8 0 -12 5 -9 10 3 6 10 10 16 10 5 0 9 -4 9 -10z m-55 -20
c-3 -5 -11 -10 -16 -10 -6 0 -7 5 -4 10 3 6 11 10 16 10 6 0 7 -4 4 -10z
m-308 -6 c-3 -3 -12 -4 -19 -1 -8 3 -5 6 6 6 11 1 17 -2 13 -5z"/>
<path d="M4617 2123 c3 -7 6 -13 8 -13 2 0 5 6 8 13 3 8 -1 14 -8 14 -7 0 -11
-6 -8 -14z"/>
<path d="M4602 2100 c13 -20 28 -27 28 -12 0 4 -9 13 -20 20 -19 12 -20 11 -8
-8z"/>
<path d="M4584 2055 c-10 -8 -14 -15 -8 -15 6 0 17 7 24 15 16 19 9 19 -16 0z"/>
<path d="M4506 2045 c4 -9 17 -14 33 -14 23 2 24 2 4 6 -13 2 -23 9 -23 14 0
5 -4 9 -10 9 -5 0 -7 -7 -4 -15z"/>
<path d="M1580 2010 c0 -5 23 -10 50 -10 28 0 50 5 50 10 0 6 -22 10 -50 10
-27 0 -50 -4 -50 -10z"/>
<path d="M700 1910 c0 -30 1 -30 55 -30 54 0 55 0 55 30 0 30 -1 30 -55 30
-54 0 -55 0 -55 -30z"/>
<path d="M4082 1858 c2 -13 9 -29 17 -37 12 -13 15 -13 27 3 13 18 8 50 -6 41
-5 -3 -11 -1 -15 5 -11 18 -26 10 -23 -12z"/>
<path d="M4442 1848 c2 -22 9 -34 21 -36 13 -3 16 2 14 19 -2 13 -9 25 -15 27
-7 2 -10 8 -6 13 3 5 0 9 -6 9 -7 0 -10 -13 -8 -32z"/>
<path d="M4642 1835 c0 -16 2 -22 5 -12 2 9 2 23 0 30 -3 6 -5 -1 -5 -18z"/>
<path d="M3935 1821 c11 -43 25 -49 25 -10 0 26 -4 36 -16 36 -11 0 -14 -7 -9
-26z"/>
<path d="M2735 1818 l-15 -23 596 -5 c585 -5 597 -5 606 -25 7 -17 8 -16 3 5
-2 14 -5 35 -5 48 l0 22 -584 0 -585 0 -16 -22z"/>
<path d="M3936 1715 c-3 -8 -1 -15 4 -15 6 0 10 7 10 15 0 8 -2 15 -4 15 -2 0
-6 -7 -10 -15z"/>
<path d="M4021 1723 c0 -5 4 -17 9 -28 8 -18 9 -17 9 8 1 15 -3 27 -9 27 -5 0
-10 -3 -9 -7z"/>
<path d="M930 1635 c0 -38 3 -45 20 -45 17 0 20 7 20 45 0 38 -3 45 -20 45
-17 0 -20 -7 -20 -45z"/>
<path d="M4455 1489 c-11 -17 -2 -18 19 -3 17 12 17 14 4 14 -9 0 -20 -5 -23
-11z"/>
<path d="M3827 1380 c-33 -103 -35 -119 -25 -148 10 -25 18 -32 40 -32 l27 0
3 119 c5 188 -2 197 -45 61z"/>
<path d="M3710 1360 c-6 -11 -8 -30 -4 -44 3 -13 1 -27 -5 -30 -6 -4 -11 1
-11 11 -1 13 -5 11 -16 -10 -21 -40 -10 -87 21 -87 21 0 23 4 24 66 1 37 4 77
7 90 7 29 -1 31 -16 4z m-13 -132 c-3 -8 -6 -5 -6 6 -1 11 2 17 5 13 3 -3 4
-12 1 -19z"/>
<path d="M3554 1316 c-15 -24 -31 -43 -35 -40 -8 5 5 -48 16 -66 3 -5 18 -10
33 -10 l27 0 -1 75 c0 41 -3 78 -6 81 -3 2 -18 -15 -34 -40z"/>
<path d="M3002 1307 c-48 -68 -57 -75 -117 -82 -113 -15 -63 -25 109 -23 l176
1 0 45 c0 44 0 45 -20 27 -23 -21 -26 -41 -7 -48 6 -3 2 -6 -10 -6 -20 -1 -38
21 -84 103 l-16 29 -31 -46z"/>
<path d="M3381 1274 c0 -11 3 -14 6 -6 3 7 2 16 -1 19 -3 4 -6 -2 -5 -13z"/>
<path d="M3225 1269 c-4 -6 -5 -12 -2 -15 2 -3 7 2 10 11 7 17 1 20 -8 4z"/>
<path d="M3600 1266 c0 -8 9 -20 20 -26 17 -9 19 -8 11 12 -9 26 -31 36 -31
14z"/>
<path d="M690 1241 c0 -6 5 -13 10 -16 6 -3 10 1 10 9 0 9 -4 16 -10 16 -5 0
-10 -4 -10 -9z"/>
<path d="M742 1239 c2 -6 8 -10 13 -10 5 0 11 4 13 10 2 6 -4 11 -13 11 -9 0
-15 -5 -13 -11z"/>
<path d="M3396 1223 c6 -22 51 -29 51 -9 0 8 -6 12 -14 9 -7 -3 -20 0 -27 6
-12 10 -14 9 -10 -6z"/>
<path d="M3918 1213 c7 -3 16 -2 19 1 4 3 -2 6 -13 5 -11 0 -14 -3 -6 -6z"/>
<path d="M680 1103 c0 -8 -15 -13 -39 -13 -22 0 -42 -4 -46 -9 -3 -6 50 -11
135 -13 90 -2 139 1 137 7 -2 6 -21 11 -43 13 -21 2 -42 9 -46 15 -6 9 -8 9
-8 0 0 -7 -12 -13 -26 -13 -17 0 -23 4 -18 13 5 7 1 7 -10 -2 -15 -13 -19 -13
-27 0 -6 10 -9 10 -9 2z"/>
<path d="M770 1036 c0 -2 7 -7 16 -10 8 -3 12 -2 9 4 -6 10 -25 14 -25 6z"/>
<path d="M646 1005 c-9 -26 -7 -32 5 -12 6 10 9 21 6 23 -2 3 -7 -2 -11 -11z"/>
<path d="M873 955 c-2 -33 2 -45 12 -45 18 0 27 32 19 64 -10 42 -29 30 -31
-19z"/>
<path d="M1306 901 c-4 -5 3 -7 14 -4 23 6 26 13 6 13 -8 0 -17 -4 -20 -9z"/>
<path d="M1730 906 c0 -2 9 -6 20 -9 11 -3 18 -1 14 4 -5 9 -34 13 -34 5z"/>
<path d="M1269 873 c-13 -16 -12 -17 4 -4 16 13 21 21 13 21 -2 0 -10 -8 -17
-17z"/>
<path d="M1786 877 c3 -10 9 -15 12 -12 3 3 0 11 -7 18 -10 9 -11 8 -5 -6z"/>
<path d="M708 873 c6 -2 18 -2 25 0 6 3 1 5 -13 5 -14 0 -19 -2 -12 -5z"/>
<path d="M1635 859 c-4 -6 -5 -12 -2 -15 2 -3 7 2 10 11 7 17 1 20 -8 4z"/>
<path d="M1197 853 c-9 -8 -9 -76 -1 -97 13 -34 24 -13 24 44 0 55 -6 70 -23
53z"/>
<path d="M1840 800 c0 -33 4 -60 10 -60 6 0 10 27 10 60 0 33 -4 60 -10 60 -6
0 -10 -27 -10 -60z"/>
<path d="M1620 814 c0 -10 5 -26 10 -34 8 -11 9 -7 4 15 -8 37 -14 45 -14 19z"/>
<path d="M1251 804 c0 -11 3 -14 6 -6 3 7 2 16 -1 19 -3 4 -6 -2 -5 -13z"/>
<path d="M1260 771 c0 -10 39 -46 43 -40 2 2 -7 14 -20 26 -13 12 -23 19 -23
14z"/>
<path d="M1779 753 c-13 -16 -12 -17 4 -4 16 13 21 21 13 21 -2 0 -10 -8 -17
-17z"/>
<path d="M1473 726 c-22 -19 -28 -32 -28 -66 0 -34 6 -47 28 -66 61 -52 146
-13 147 68 0 28 -7 42 -31 62 -38 33 -79 33 -116 2z m112 -29 c29 -41 13 -82
-38 -100 -19 -7 -56 8 -69 27 -12 17 -9 64 4 72 8 5 9 2 5 -10 -4 -10 -3 -15
4 -11 5 4 7 15 4 25 -11 35 65 32 90 -3z"/>
<path d="M1518 691 c-23 -23 -23 -48 1 -60 27 -15 56 9 47 37 -4 12 -12 22
-17 22 -6 0 -7 5 -4 10 10 16 -9 10 -27 -9z"/>
<path d="M1328 723 c6 -2 18 -2 25 0 6 3 1 5 -13 5 -14 0 -19 -2 -12 -5z"/>
<path d="M1713 723 c9 -2 23 -2 30 0 6 3 -1 5 -18 5 -16 0 -22 -2 -12 -5z"/>
<path d="M1205 530 c3 -5 8 -10 11 -10 2 0 4 5 4 10 0 6 -5 10 -11 10 -5 0 -7
-4 -4 -10z"/>
<path d="M1535 530 c-7 -11 9 -11 45 0 24 8 24 8 -7 9 -17 1 -35 -3 -38 -9z"/>
<path d="M1628 533 c6 -2 18 -2 25 0 6 3 1 5 -13 5 -14 0 -19 -2 -12 -5z"/>
<path d="M1718 533 c7 -3 16 -2 19 1 4 3 -2 6 -13 5 -11 0 -14 -3 -6 -6z"/>
<path d="M1840 531 c0 -6 6 -11 13 -11 8 0 7 -4 -3 -10 -13 -8 -12 -10 3 -10
12 0 17 6 15 17 -3 18 -28 31 -28 14z"/>
<path d="M1278 508 c5 -5 16 -8 23 -6 8 3 3 7 -10 11 -17 4 -21 3 -13 -5z"/>
<path d="M1240 490 c14 -27 13 -28 -25 -36 -19 -3 -38 -11 -41 -16 -4 -6 2 -7
16 -3 15 5 20 4 16 -4 -5 -7 2 -11 18 -11 14 0 26 5 26 11 0 5 -4 8 -9 4 -5
-3 -12 -1 -16 5 -8 13 11 13 37 -1 14 -8 17 -13 9 -19 -7 -4 15 -8 49 -9 45
-1 62 2 66 13 3 8 12 12 20 9 8 -3 14 0 14 6 0 13 -37 15 -42 2 -1 -5 -16 -12
-33 -15 -25 -5 -26 -5 -9 3 12 5 25 14 28 20 8 13 230 4 234 -10 2 -5 22 -9
45 -8 36 1 38 2 17 9 -24 8 -24 8 5 9 17 0 37 -4 45 -9 13 -8 12 -10 -2 -10
-10 0 -18 -4 -18 -10 0 -12 32 -13 118 -4 34 4 59 10 57 14 -3 5 5 6 17 2 14
-3 19 -1 14 6 -4 6 -23 14 -42 18 -31 6 -35 10 -31 29 3 18 0 22 -12 17 -9 -3
-22 -14 -29 -24 -7 -10 -21 -18 -31 -18 -21 0 -37 30 -21 40 5 3 -47 6 -117 6
-116 0 -118 0 -25 -3 88 -3 102 -6 102 -21 0 -15 -13 -17 -132 -15 -73 1 -145
3 -160 3 -34 0 -37 17 -5 29 17 7 11 9 -25 8 -25 -1 -41 -5 -36 -8 17 -11 1
-39 -21 -39 -11 0 -25 8 -30 19 -6 10 -19 21 -31 24 -16 4 -18 2 -10 -13z
m595 -50 c-11 -5 -27 -9 -35 -9 -13 -1 -13 0 0 9 8 5 24 9 35 9 l20 0 -20 -9z"/>
<path d="M3342 489 c-15 -5 -22 -16 -20 -26 5 -26 135 -32 145 -7 14 36 -66
57 -125 33z"/>
<path d="M617 458 c-4 -13 -1 -26 6 -30 8 -5 7 -8 -4 -8 -9 0 -19 3 -23 7 -10
10 -36 12 -36 3 0 -15 54 -21 90 -10 44 13 97 13 105 1 3 -6 -16 -12 -42 -14
-27 -3 -2 -3 53 -2 56 2 110 8 120 14 11 6 16 11 12 12 -5 1 -11 3 -15 4 -5 2
-18 6 -30 10 -13 4 -23 14 -23 21 0 11 -22 14 -104 14 -99 0 -104 -1 -109 -22z
m238 -28 c-3 -5 -14 -10 -23 -9 -14 0 -13 2 3 9 27 11 27 11 20 0z"/>
<path d="M2416 435 c-3 -8 -13 -15 -23 -15 -34 0 -95 -22 -87 -30 24 -24 274
-62 274 -42 0 5 -11 7 -25 4 -16 -3 -33 2 -47 14 -16 14 -22 16 -25 6 -4 -10
-8 -10 -19 -1 -10 8 -14 8 -14 0 0 -6 -7 -11 -15 -11 -8 0 -15 5 -15 10 0 6 5
10 11 10 5 0 7 5 4 10 -4 6 -12 4 -21 -5 -18 -18 -24 -18 -61 -4 -26 10 -27
12 -8 19 28 12 47 12 40 0 -8 -13 1 -13 26 0 14 8 25 7 41 -4 17 -12 91 -15
462 -17 535 -3 441 -3 970 0 241 1 441 0 444 -3 3 -3 -13 -6 -36 -6 -23 0 -42
-5 -42 -10 0 -11 46 -6 100 11 l25 7 -24 1 c-18 1 -22 4 -14 12 8 8 17 8 31 0
32 -17 39 -12 14 8 -15 13 -20 25 -15 37 6 17 5 17 -17 1 -23 -16 -99 -17
-950 -17 -799 0 -929 2 -946 15 -24 18 -31 18 -38 0z"/>
<path d="M1420 409 c-14 -4 33 -7 105 -8 72 0 135 3 141 7 16 9 -213 11 -246
1z"/>
<path d="M2650 353 c0 -6 -10 -14 -22 -16 -13 -3 10 -4 51 -3 41 0 76 6 78 11
2 6 -12 11 -32 11 -19 0 -35 -5 -35 -11 0 -5 -5 -3 -10 5 -9 13 -10 13 -10 0
0 -13 -1 -13 -10 0 -6 9 -10 10 -10 3z"/>
<path d="M2850 349 c0 -4 8 -10 18 -13 9 -3 1 -3 -18 -1 -19 3 -48 1 -65 -4
-21 -6 3 -9 85 -8 66 0 104 3 90 8 -14 4 -37 7 -52 8 -16 1 -28 5 -28 9 0 5
-7 9 -15 9 -8 0 -15 -4 -15 -8z"/>
<path d="M3650 348 c0 -4 7 -8 15 -8 8 0 15 4 15 8 0 5 -7 9 -15 9 -8 0 -15
-4 -15 -9z"/>
<path d="M3710 348 c0 -5 38 -8 85 -8 47 0 85 3 85 8 0 4 -38 7 -85 7 -47 0
-85 -3 -85 -7z"/>
<path d="M4071 353 c-1 -9 -25 -13 -83 -14 -46 -1 -117 -5 -158 -9 -50 -6 -23
-7 85 -3 88 2 161 6 163 8 2 2 2 10 -1 17 -4 10 -6 10 -6 1z"/>
<path d="M4116 348 c6 -10 59 -8 99 2 22 6 13 8 -37 7 -36 -1 -64 -5 -62 -9z"/>
<path d="M3458 333 c12 -2 32 -2 45 0 12 2 2 4 -23 4 -25 0 -35 -2 -22 -4z"/>
<path d="M3178 313 c101 -2 263 -2 360 0 97 1 15 2 -183 2 -198 0 -278 -1
-177 -2z"/>
</g>
</svg>
